<?xml version="1.0" standalone="no"?>
<!DOCTYPE svg PUBLIC "-//W3C//DTD SVG 20010904//EN"
 "http://www.w3.org/TR/2001/REC-SVG-20010904/DTD/svg10.dtd">
<svg version="1.0" xmlns="http://www.w3.org/2000/svg"
 width="460.000000pt" height="460.000000pt" viewBox="0 0 460.000000 460.000000"
 preserveAspectRatio="xMidYMid meet">
<metadata>
Created by potrace 1.14, written by Peter Selinger 2001-2017
</metadata>
<g transform="translate(0.000000,460.000000) scale(0.100000,-0.100000)"
fill="#000000" stroke="none">
<path d="M1763 4581 c-18 -15 -23 -30 -23 -68 0 -35 3 -44 10 -33 7 11 9 4 8
-26 -1 -28 -7 -45 -20 -53 -12 -7 -18 -8 -18 0 0 5 -5 7 -10 4 -7 -4 -8 -24
-4 -51 8 -57 0 -88 -28 -102 -13 -6 -17 -11 -10 -11 7 -1 10 -6 7 -11 -4 -6
-11 -8 -16 -5 -5 3 -6 -1 -3 -9 4 -11 0 -16 -10 -16 -9 0 -16 -6 -17 -12 -2
-40 -7 -59 -14 -65 -4 -5 -5 0 -2 10 4 9 2 17 -3 17 -6 0 -10 -5 -10 -10 0 -6
-18 -26 -40 -46 -28 -26 -40 -44 -40 -64 0 -16 -7 -30 -15 -34 -8 -3 -15 -9
-14 -13 4 -21 -2 -33 -13 -27 -7 4 -8 3 -4 -5 10 -15 -3 -53 -15 -46 -10 7
-12 -6 -9 -42 1 -13 -6 -30 -14 -39 -9 -8 -17 -31 -18 -50 -1 -19 -2 -41 -2
-49 -1 -8 2 -14 6 -12 11 4 58 -46 58 -62 0 -9 16 -31 35 -48 19 -18 35 -39
35 -46 0 -20 79 -127 93 -127 7 0 18 -9 25 -20 7 -11 22 -20 35 -20 22 -1 22
-1 -3 -15 l-25 -14 23 -1 c13 0 32 5 43 10 13 7 19 7 19 0 0 -18 78 -12 89 8
7 12 10 13 11 3 0 -11 5 -10 20 4 19 17 20 17 20 1 0 -13 5 -16 23 -11 12 3
18 3 12 -2 -5 -4 -11 -15 -13 -23 -1 -10 3 -8 13 5 15 18 14 21 -4 34 -12 7
-21 17 -21 22 0 18 30 8 53 -17 21 -22 28 -24 43 -14 16 9 16 11 2 6 -10 -3
-20 0 -24 6 -4 6 -3 8 3 5 6 -4 16 0 23 8 10 12 9 15 -6 15 -12 0 -15 3 -8 8
16 10 13 42 -3 42 -9 0 -13 7 -11 18 2 9 9 16 16 15 6 -2 9 4 6 12 -4 8 -10
12 -15 9 -12 -7 -11 3 1 26 7 13 5 21 -8 31 -16 13 -16 12 -2 -6 14 -19 14
-19 -3 -6 -10 8 -16 20 -13 27 3 8 -4 11 -19 10 -16 -2 -22 1 -18 10 6 16 -13
19 -22 4 -3 -5 -11 -10 -17 -10 -5 0 0 11 13 25 13 13 30 25 37 25 6 0 12 5
12 10 0 6 5 10 11 10 6 0 9 -6 7 -12 -3 -7 4 -17 15 -23 27 -13 36 -38 11 -28
-16 6 -17 5 -4 -9 20 -21 33 -12 27 18 -2 13 0 24 5 24 5 0 8 8 7 18 -3 34 1
44 16 38 10 -3 14 1 13 12 -4 55 4 101 22 122 11 13 20 28 20 34 0 6 5 4 11
-4 8 -12 9 -10 4 8 -4 14 -1 28 9 38 9 8 16 22 16 31 0 10 6 13 16 9 11 -4 14
0 12 17 -2 16 2 22 15 21 9 -1 17 5 17 13 0 8 5 11 10 8 6 -3 10 -2 10 4 0 5
-5 13 -10 16 -13 8 20 54 40 55 13 0 13 -1 0 -10 -23 -15 4 -12 47 5 44 16
153 25 153 12 0 -5 7 -7 15 -3 8 3 15 0 15 -7 0 -7 20 -19 45 -26 25 -7 45
-18 45 -24 0 -5 9 -2 20 8 18 16 23 17 47 4 l27 -14 -26 -3 c-20 -2 -25 -7
-21 -23 3 -10 10 -19 16 -19 6 0 8 -3 4 -6 -10 -10 22 -36 34 -28 8 5 9 3 4
-6 -5 -9 -2 -11 11 -7 11 4 33 9 49 12 29 5 30 5 5 -6 -22 -10 -22 -13 -7 -16
11 -3 16 -11 13 -19 -3 -8 0 -14 6 -14 6 0 9 -2 6 -5 -3 -3 -17 -1 -32 5 -20
7 -25 7 -20 -2 5 -8 2 -9 -9 -5 -10 3 -17 2 -17 -3 0 -6 10 -10 23 -10 16 0
18 -3 8 -9 -7 -5 -9 -10 -5 -12 5 -2 17 -17 26 -34 12 -21 24 -30 41 -28 20 1
24 -3 25 -32 1 -19 -3 -37 -8 -40 -5 -3 -7 0 -4 8 8 22 -12 30 -29 12 -14 -13
-13 -20 10 -60 13 -25 31 -45 39 -45 9 0 13 -4 10 -8 -2 -4 9 -14 25 -21 16
-7 29 -18 29 -25 0 -8 13 -13 31 -14 41 -1 46 -8 18 -23 -17 -9 -24 -9 -27 0
-4 13 -51 15 -70 2 -11 -7 -11 -9 2 -14 12 -5 15 -16 12 -41 -3 -24 0 -36 10
-40 8 -3 14 -11 14 -19 0 -7 9 -23 21 -36 18 -19 19 -24 7 -38 -11 -14 -11
-16 1 -8 11 6 13 4 7 -10 -5 -15 -4 -16 9 -5 8 7 12 16 9 21 -3 5 -1 9 5 9 5
0 12 -4 16 -10 3 -5 13 -6 21 -3 13 5 15 1 9 -17 -5 -15 -4 -20 4 -16 6 4 11
2 11 -5 0 -7 14 3 31 22 30 34 30 34 24 7 -7 -25 -5 -28 21 -30 76 -4 111 -2
134 9 14 6 60 17 103 24 42 6 77 16 77 21 0 5 4 7 9 3 5 -3 11 2 13 12 3 15 4
15 20 -1 16 -16 122 -50 114 -37 -2 3 14 7 36 8 35 2 38 1 28 -12 -7 -8 -16
-13 -20 -10 -5 3 -12 1 -15 -5 -4 -6 -2 -9 3 -8 13 4 62 -49 53 -57 -3 -4 5
-6 19 -5 46 4 54 1 41 -14 -8 -9 -9 -16 -2 -21 6 -3 9 -19 7 -35 -2 -17 1 -30
6 -30 5 0 7 -3 5 -7 -3 -5 35 -7 85 -5 53 2 95 -1 101 -7 7 -7 -8 -8 -46 -4
-62 6 -162 -16 -130 -29 16 -6 16 -7 -2 -7 -14 -1 -8 -8 24 -26 23 -14 49 -25
56 -25 15 0 48 -41 40 -49 -3 -2 -15 5 -26 18 -20 22 -44 25 -37 6 2 -6 6 -9
11 -7 4 1 6 -1 5 -5 -2 -5 17 -27 42 -50 31 -29 39 -41 26 -39 -10 1 -24 10
-31 20 -7 10 -17 18 -22 19 -4 1 -19 14 -32 30 -17 20 -27 25 -34 18 -6 -6
-21 -11 -34 -11 -29 0 -95 -64 -80 -79 7 -7 6 -15 -3 -26 -10 -13 -5 -30 35
-108 26 -50 54 -99 61 -108 8 -9 14 -29 13 -45 -1 -16 6 -42 15 -59 9 -16 16
-37 15 -45 0 -8 -9 3 -21 25 -11 22 -29 50 -39 63 -12 15 -16 34 -13 55 4 24
-5 49 -36 105 -23 40 -45 70 -50 67 -5 -3 -13 2 -18 11 -8 15 -10 15 -15 -1
-4 -9 -11 -13 -17 -10 -9 6 -15 -8 -11 -29 1 -4 -3 -14 -9 -21 -9 -10 -6 -14
12 -18 l23 -4 -22 -2 c-13 0 -23 -5 -23 -11 0 -5 -9 -10 -19 -10 -10 0 -22 -7
-25 -16 -3 -9 -11 -12 -18 -8 -7 4 -4 -4 7 -17 11 -13 31 -39 44 -57 l23 -34
-26 17 c-14 10 -26 21 -26 26 0 10 -54 12 -87 3 -13 -4 -20 -11 -17 -16 3 -5
-4 -12 -16 -15 -23 -6 -23 -18 -5 -83 7 -24 7 -24 -8 -5 -9 11 -17 15 -17 9 0
-11 30 -41 37 -36 11 8 23 -1 23 -17 0 -10 14 -33 30 -51 17 -18 30 -37 30
-44 0 -6 -7 -3 -14 7 -51 67 -80 94 -98 90 -12 -4 -18 0 -18 12 0 9 -6 23 -14
30 -12 12 -15 11 -21 -8 l-8 -22 -4 23 c-2 12 -8 22 -13 22 -5 0 -7 -7 -4 -15
4 -10 0 -15 -12 -13 -52 4 -64 -2 -64 -30 0 -41 -10 -45 -39 -20 -14 13 -20
16 -13 7 7 -10 8 -19 2 -25 -12 -12 9 -53 34 -68 32 -19 67 -57 61 -67 -4 -5
-18 -9 -33 -9 -23 1 -25 2 -9 11 20 12 15 24 -15 40 -12 7 -18 7 -14 1 3 -6 0
-13 -6 -15 -7 -3 -4 -6 6 -6 20 -1 20 -1 0 -17 -10 -8 -13 -13 -6 -9 6 3 12 1
12 -4 0 -6 -4 -11 -10 -11 -25 0 -6 -23 33 -40 25 -12 32 -17 16 -14 -15 3
-30 1 -33 -5 -4 -6 -2 -11 5 -11 7 0 10 -3 6 -6 -16 -16 25 -34 78 -34 35 0
54 -4 50 -10 -3 -5 -27 -10 -53 -10 -46 -1 -97 -23 -71 -32 7 -2 18 -20 24
-39 10 -30 16 -35 56 -40 l44 -6 -42 -1 c-23 -1 -45 -7 -49 -14 -4 -6 -3 -8 4
-4 6 3 13 -6 17 -24 4 -16 11 -30 16 -30 6 0 7 -4 4 -10 -3 -5 -1 -10 5 -10 6
0 9 -4 6 -9 -3 -5 14 -14 39 -20 56 -14 59 -25 4 -17 -34 5 -39 3 -30 -8 9
-11 9 -15 -1 -19 -7 -3 -2 -6 11 -6 19 -1 21 -4 12 -15 -10 -12 -7 -18 13 -31
14 -9 31 -13 37 -9 8 4 9 3 5 -4 -4 -7 -1 -12 6 -12 10 0 10 -2 1 -8 -9 -6 -6
-16 12 -36 29 -33 31 -43 10 -43 -8 0 -12 4 -10 8 3 3 -2 12 -10 19 -8 7 -15
9 -15 4 0 -4 -6 1 -14 12 -23 31 -33 11 -40 -84 -2 -29 0 -39 6 -30 7 9 8 6 5
-10 -3 -12 -2 -20 3 -17 4 3 11 -2 14 -11 9 -23 7 -31 -3 -15 -6 9 -7 -7 -5
-43 2 -31 1 -55 -3 -54 -5 2 -10 -1 -11 -7 -11 -29 -24 -45 -35 -40 -7 4 -1
-3 12 -14 21 -19 20 -26 -2 -22 -5 1 -6 -3 -2 -9 3 -6 10 -8 15 -5 4 3 10 -2
14 -10 3 -8 1 -15 -5 -15 -5 0 7 -18 28 -41 40 -43 68 -88 60 -96 -3 -3 -13 9
-22 26 -9 19 -20 29 -27 25 -6 -4 -8 -3 -5 3 3 5 -12 27 -33 48 -22 22 -41 36
-41 32 -1 -4 -2 -10 -3 -14 -1 -5 -5 -14 -9 -20 -5 -7 -4 -13 2 -13 5 0 14 7
19 16 6 10 12 13 16 6 3 -5 -1 -13 -10 -16 -16 -6 -11 -26 7 -26 6 0 7 5 3 12
-4 7 -3 8 5 4 6 -4 9 -12 6 -17 -4 -5 -2 -9 2 -9 5 0 14 -10 22 -21 13 -21 12
-21 -25 1 -21 13 -34 19 -31 13 4 -7 2 -15 -4 -19 -8 -4 -9 -3 -5 4 3 6 -2 15
-12 21 -17 9 -19 6 -18 -29 1 -21 -2 -36 -6 -34 -3 2 -10 -1 -14 -7 -4 -7 -3
-9 2 -6 6 3 16 2 24 -4 12 -7 12 -9 1 -9 -11 0 -11 -3 -1 -15 17 -20 5 -31
-16 -15 -9 8 -18 10 -22 4 -11 -15 -47 -40 -39 -28 4 7 1 14 -7 17 -8 3 -17
-1 -20 -8 -3 -8 -14 -12 -25 -10 -14 2 -18 -1 -14 -11 3 -8 -1 -14 -11 -14 -9
0 -21 -8 -28 -19 -11 -18 -12 -18 -32 3 -12 12 -28 21 -36 21 -21 -1 -168 51
-186 66 -8 6 -14 18 -14 25 0 7 -6 11 -14 8 -7 -3 -20 1 -28 10 -9 8 -20 11
-28 6 -7 -4 -18 -6 -25 -4 -16 7 -38 -22 -29 -38 4 -7 4 -10 -1 -6 -4 4 -14 3
-22 -3 -11 -10 -11 -15 -1 -28 12 -14 11 -14 -4 -2 -15 11 -18 11 -23 -3 -17
-53 -15 -51 -26 -36 -8 11 -9 9 -4 -9 5 -17 4 -22 -5 -16 -9 5 -11 4 -6 -4 4
-6 3 -17 -2 -24 -6 -7 -17 -34 -26 -62 l-16 -50 3 75 c1 41 7 78 12 83 6 4 4
11 -5 17 -9 6 -11 10 -3 10 21 0 75 60 69 76 -3 8 -2 12 3 9 13 -7 21 18 35
115 6 34 5 41 -4 30 -9 -12 -10 -11 -5 6 3 13 -3 36 -16 58 -12 21 -18 43 -14
54 5 13 3 14 -6 5 -6 -6 -17 -9 -24 -7 -7 3 -16 1 -20 -5 -3 -6 -10 -11 -15
-11 -5 0 2 16 15 36 26 38 25 57 -2 47 -12 -5 -14 -3 -8 8 7 11 6 12 -7 2 -8
-7 -19 -9 -23 -5 -5 4 -5 1 -1 -5 4 -8 2 -13 -6 -13 -8 0 -29 -29 -47 -65 -19
-36 -36 -64 -38 -61 -4 3 21 76 36 106 4 8 7 23 5 33 -1 9 2 15 6 12 5 -3 8 3
7 14 0 11 -5 17 -11 14 -5 -4 -7 3 -3 16 l5 21 -22 -21 c-13 -12 -27 -22 -32
-22 -5 1 -18 -3 -29 -9 -11 -5 1 10 26 34 50 46 71 82 42 71 -10 -4 -14 -2 -9
5 3 6 2 13 -4 17 -6 4 -8 10 -6 14 3 4 -11 15 -30 26 -32 17 -35 17 -52 2 -20
-18 -52 -23 -52 -8 0 5 12 19 28 31 l27 22 -36 -20 c-27 -15 -40 -17 -48 -9
-8 8 -11 8 -11 0 0 -6 -8 -9 -19 -6 -20 5 -37 -22 -21 -32 16 -10 12 -35 -5
-35 -8 0 -15 9 -15 19 0 28 -14 33 -32 12 -10 -11 -14 -31 -11 -56 3 -34 2
-37 -17 -32 -34 9 -3 -23 45 -45 38 -18 38 -19 10 -16 -16 2 -32 5 -35 8 -3 3
-23 21 -44 40 -38 34 -39 34 -18 5 40 -56 49 -64 73 -74 l24 -10 -25 0 c-18 0
-36 14 -65 49 -30 37 -43 46 -53 38 -10 -8 -11 -7 -5 8 6 16 5 17 -9 4 -9 -8
-14 -18 -12 -22 7 -11 -34 -91 -68 -133 -31 -37 -44 -65 -29 -65 4 0 7 -9 7
-19 0 -15 -4 -17 -17 -10 -20 10 -48 -14 -29 -26 6 -3 8 -10 5 -15 -2 -4 5
-19 16 -34 11 -14 15 -26 9 -26 -6 0 -13 7 -17 16 -3 9 -20 22 -37 30 -19 8
-24 13 -13 14 12 0 17 8 17 27 0 26 -1 26 -16 7 -8 -10 -13 -13 -9 -7 4 8 1
11 -9 7 -16 -6 -46 -63 -46 -87 0 -8 -12 -20 -27 -26 -16 -7 -48 -23 -73 -36
-25 -14 -50 -25 -56 -25 -6 0 -15 -15 -19 -32 -5 -23 -9 -27 -12 -15 -6 23
-23 22 -23 -2 0 -11 -4 -22 -9 -25 -4 -3 -6 6 -3 19 6 32 -3 31 -50 -1 -29
-21 -36 -30 -27 -40 6 -7 8 -17 5 -22 -2 -4 6 -21 20 -37 31 -36 30 -41 -3
-17 -17 11 -39 18 -55 15 -18 -2 -33 3 -47 18 -11 12 -24 18 -30 14 -7 -3 -11
2 -11 14 0 22 -19 30 -21 9 -1 -7 -5 -2 -9 12 -4 14 -8 18 -9 9 -1 -9 -8 -30
-17 -48 -10 -19 -13 -42 -10 -57 4 -16 3 -23 -3 -20 -5 4 -9 -6 -9 -21 1 -30
-22 -105 -67 -218 -43 -108 -49 -100 -8 11 20 54 36 113 36 131 0 18 4 30 8
28 9 -6 22 102 13 116 -4 8 -3 9 5 5 8 -5 11 5 9 38 -2 25 -6 46 -10 46 -5 0
-8 -5 -8 -11 0 -5 -4 -8 -9 -4 -5 3 -12 -5 -14 -17 -4 -22 -4 -22 -6 2 -1 20
-7 25 -29 26 -15 0 -43 8 -62 17 -19 9 -54 21 -76 26 -23 6 -47 18 -54 26 -7
8 -22 15 -33 15 -27 0 -57 28 -50 46 3 8 -1 16 -8 19 -11 4 -14 27 -12 89 1
68 -2 87 -15 99 -26 22 -80 37 -131 37 -26 0 -73 7 -104 15 -32 8 -95 15 -141
15 -91 0 -175 24 -144 41 33 18 165 63 203 68 60 9 47 24 -31 38 -38 7 -77 17
-86 23 -22 13 -74 13 -97 1 -9 -5 -23 -6 -31 -1 -11 7 -10 12 5 27 18 17 18
18 -6 21 -13 2 -28 8 -34 14 -7 6 0 7 20 3 20 -4 26 -3 17 3 -11 7 -10 10 3
16 9 3 26 6 38 7 12 0 16 3 10 6 -20 7 -15 23 6 23 11 0 23 5 26 10 4 6 11 7
17 4 6 -4 1 -12 -12 -19 -23 -12 -23 -13 -3 -19 11 -4 31 -3 44 2 13 5 62 15
109 22 47 7 87 16 90 20 3 3 27 15 54 26 46 18 73 44 47 44 -13 0 -61 40 -61
51 0 5 17 15 38 24 20 9 51 23 67 30 17 7 70 16 119 20 49 3 101 12 116 20 33
17 151 34 304 45 65 5 123 13 129 19 6 6 16 11 22 11 5 0 3 -5 -5 -10 -8 -5
-10 -10 -5 -10 17 0 40 19 40 32 0 7 5 13 10 13 12 0 66 38 107 75 27 25 28
29 12 33 -17 4 -17 5 -1 6 19 1 24 21 5 22 -7 0 -2 5 11 10 35 14 13 31 -48
37 -28 2 -49 8 -46 12 2 4 30 3 61 -3 45 -7 58 -7 65 4 6 10 2 16 -14 20 -21
5 -21 5 -3 16 18 10 18 12 -10 25 -31 16 -59 13 -48 -4 4 -7 2 -8 -5 -4 -6 4
-18 2 -26 -4 -11 -9 -15 -9 -15 -1 0 6 4 11 8 11 5 0 9 7 9 15 0 9 -10 15 -26
15 -14 0 -31 4 -38 8 -6 4 13 7 43 7 30 0 54 4 54 10 0 5 -14 8 -32 6 -18 -1
-34 3 -39 11 -7 9 -11 10 -17 1 -5 -8 -21 -9 -51 -3 -25 4 -71 4 -103 0 -61
-9 -165 2 -200 21 -22 12 -23 28 -3 35 17 7 21 34 5 34 -5 0 -10 -5 -10 -11 0
-5 -4 -7 -10 -4 -19 12 -10 25 18 26 15 0 43 6 62 13 l35 13 -30 6 c-16 4 -64
7 -105 8 -108 2 -140 8 -140 28 0 30 17 43 61 46 24 2 47 4 51 4 7 1 5 12 -9
49 -3 9 -7 20 -7 25 -1 4 -5 7 -10 6 -5 0 -13 6 -18 15 -5 9 -16 16 -23 16
-19 0 -19 14 0 30 12 10 7 17 -33 47 -55 42 -88 75 -85 85 2 4 -5 4 -14 1 -13
-5 -15 -2 -11 15 7 25 -7 30 -16 6 -5 -13 -9 -14 -20 -5 -11 9 -20 6 -44 -14
-31 -26 -48 -33 -36 -14 3 6 0 15 -7 20 -10 6 -7 9 11 9 14 0 39 9 55 20 17
11 24 20 17 20 -7 0 -10 5 -7 10 4 6 10 8 15 5 5 -3 3 10 -3 27 -7 18 -18 37
-25 41 -7 5 -10 12 -7 18 4 5 0 9 -7 9 -7 0 -13 11 -13 25 0 14 6 25 13 25 19
0 -18 60 -43 70 -19 8 -19 9 5 18 14 6 19 11 12 11 -9 1 -11 8 -7 22 5 16 2
22 -15 26 -14 4 -20 12 -17 23 4 15 -3 18 -36 18 -26 1 -36 -2 -28 -8 10 -6 7
-12 -13 -25 -27 -18 -93 -17 -140 1 -13 5 -17 4 -12 -4 3 -6 2 -13 -4 -17 -6
-3 -13 2 -17 11 -6 16 -7 16 -14 -2 -5 -13 -8 -15 -8 -4 -1 9 -10 16 -21 17
-11 1 -35 9 -53 18 -19 10 -66 18 -116 21 -49 3 -92 11 -104 19 -17 12 -22 12
-35 -2 -14 -14 -14 -17 1 -28 16 -12 15 -13 -8 -19 -35 -9 -102 3 -83 15 10 7
10 9 -2 9 -44 0 -60 -12 -60 -45 0 -23 5 -34 18 -37 21 -6 46 9 55 32 3 8 6 0
6 -17 1 -32 0 -33 -39 -33 l-40 0 0 -1655 0 -1655 2300 0 2300 0 0 2300 0
2300 -1407 0 c-1362 -1 -1409 -1 -1430 -19z m1052 -611 c-3 -5 -14 -10 -23
-10 -15 0 -15 2 -2 10 20 13 33 13 25 0z m-2375 -620 c0 -5 -4 -10 -10 -10 -5
0 -10 5 -10 10 0 6 5 10 10 10 6 0 10 -4 10 -10z m150 -15 c0 -11 -11 -15 -36
-15 -20 0 -33 4 -29 10 3 5 12 7 19 4 8 -3 17 -1 21 5 9 16 25 13 25 -4z
m-256 -16 c-3 -5 -10 -7 -15 -3 -5 3 -7 10 -3 15 3 5 10 7 15 3 5 -3 7 -10 3
-15z m2766 11 c0 -5 -4 -10 -10 -10 -5 0 -10 5 -10 10 0 6 5 10 10 10 6 0 10
-4 10 -10z m-2690 -42 c0 -5 -9 -8 -20 -8 -18 0 -19 3 -8 20 9 14 14 16 20 7
4 -7 8 -15 8 -19z m3806 -203 c16 -4 39 -8 51 -11 36 -7 53 -32 53 -77 0 -44
-27 -114 -51 -133 -25 -20 -64 -12 -67 14 -3 22 -4 23 -17 5 -10 -12 -14 -13
-15 -5 0 10 -10 7 -36 -9 -35 -21 -114 -34 -114 -18 0 5 -14 28 -30 51 -20 28
-32 61 -36 94 -8 61 -5 63 106 74 43 4 76 13 78 20 3 7 14 10 27 6 12 -3 35
-8 51 -11z m-3686 -100 c0 -10 -10 -15 -32 -14 -22 1 -26 3 -13 6 11 3 24 9
30 14 13 12 15 11 15 -6z m160 -99 c0 -11 -19 -15 -25 -6 -3 5 1 10 9 10 9 0
16 -2 16 -4z m45 -26 c-3 -5 -13 -10 -21 -10 -8 0 -14 5 -14 10 0 6 9 10 21
10 11 0 17 -4 14 -10z m-13 -152 c-7 -7 -12 -8 -12 -2 0 14 12 26 19 19 2 -3
-1 -11 -7 -17z m-47 2 c3 -5 1 -10 -4 -10 -6 0 -11 5 -11 10 0 6 2 10 4 10 3
0 8 -4 11 -10z m295 -30 c0 -14 -7 -20 -23 -20 -46 0 -34 21 21 39 1 1 2 -8 2
-19z m-431 -4 c-12 -10 -60 -16 -54 -6 3 5 18 10 32 10 15 0 24 -2 22 -4z
m2781 -826 c0 -5 -2 -10 -4 -10 -3 0 -8 5 -11 10 -3 6 -1 10 4 10 6 0 11 -4
11 -10z m-799 -297 c13 -16 12 -17 -3 -4 -10 7 -18 15 -18 17 0 8 8 3 21 -13z
m-2324 -49 c-3 -3 -12 -4 -19 -1 -8 3 -5 6 6 6 11 1 17 -2 13 -5z m683 -156
c0 -16 -3 -19 -11 -11 -6 6 -8 16 -5 22 11 17 16 13 16 -11z"/>
<path d="M1414 3906 c-8 -22 -2 -27 16 -16 12 7 12 12 3 21 -10 10 -14 9 -19
-5z"/>
<path d="M2730 3760 c0 -5 7 -7 15 -4 8 4 15 8 15 10 0 2 -7 4 -15 4 -8 0 -15
-4 -15 -10z"/>
<path d="M184 3693 c0 -21 -2 -51 -5 -68 -3 -25 0 -31 19 -33 12 -2 22 -9 22
-16 0 -7 7 -13 15 -13 18 0 18 2 4 29 -6 11 -7 18 -2 15 5 -3 16 2 25 12 17
21 9 43 -17 47 -27 4 -46 26 -40 45 4 12 1 19 -7 19 -8 0 -13 -13 -14 -37z"/>
<path d="M75 3670 c-3 -5 -1 -10 4 -10 6 0 11 5 11 10 0 6 -2 10 -4 10 -3 0
-8 -4 -11 -10z"/>
<path d="M20 3590 c0 -5 5 -10 10 -10 6 0 10 5 10 10 0 6 -4 10 -10 10 -5 0
-10 -4 -10 -10z"/>
<path d="M55 3589 c-9 -14 -2 -20 14 -10 8 6 9 11 3 15 -6 3 -14 1 -17 -5z"/>
<path d="M260 3590 c0 -5 5 -10 10 -10 6 0 10 5 10 10 0 6 -4 10 -10 10 -5 0
-10 -4 -10 -10z"/>
<path d="M0 3474 c0 -59 9 -79 25 -54 9 15 45 12 51 -5 4 -8 15 -15 25 -15 13
0 17 5 12 16 -4 10 1 22 11 29 12 9 14 15 6 20 -7 4 -17 2 -23 -4 -6 -6 -17
-11 -25 -11 -12 0 -11 4 2 25 18 28 20 35 7 35 -5 0 -11 -9 -14 -20 -3 -12
-14 -20 -26 -20 -25 0 -26 4 -6 24 13 13 12 16 -15 30 l-30 14 0 -64z"/>
<path d="M370 3530 c0 -13 28 -25 38 -16 3 4 0 11 -8 16 -20 13 -30 12 -30 0z"/>
<path d="M465 3519 c-8 -12 24 -19 47 -10 21 7 20 8 -10 13 -18 3 -35 1 -37
-3z"/>
<path d="M557 3486 c-6 -16 9 -43 19 -33 4 4 13 2 21 -4 10 -9 13 -8 13 1 0 7
7 10 16 6 12 -5 15 -2 10 9 -3 9 -2 13 3 10 5 -3 12 -1 15 4 7 11 -17 19 -61
19 -17 1 -34 -5 -36 -12z"/>
<path d="M2353 3443 c-4 -9 -14 -24 -23 -33 -16 -16 -18 -16 -28 -1 -9 13 -11
12 -11 -11 -1 -20 -5 -26 -16 -22 -13 6 -16 1 -14 -23 0 -5 7 -7 15 -5 8 2 19
-8 25 -21 8 -18 18 -23 37 -21 14 1 31 0 37 -4 19 -13 134 -10 145 3 8 9 8 15
0 20 -6 3 -7 12 -4 18 4 7 -3 2 -15 -10 -12 -13 -26 -23 -30 -23 -11 0 -9 50
2 68 5 6 4 12 -1 12 -14 0 -62 44 -62 58 0 18 -50 14 -57 -5z"/>
<path d="M3700 3060 c0 -5 7 -10 16 -10 8 0 12 -4 9 -10 -7 -11 8 -14 18 -3 4
3 -1 12 -11 19 -21 16 -32 17 -32 4z"/>
<path d="M855 3030 c3 -5 8 -10 11 -10 2 0 4 5 4 10 0 6 -5 10 -11 10 -5 0 -7
-4 -4 -10z"/>
<path d="M3686 3031 c-3 -5 1 -11 9 -15 9 -3 15 0 15 9 0 16 -16 20 -24 6z"/>
<path d="M3006 3013 c-6 -14 -5 -15 5 -6 7 7 10 15 7 18 -3 3 -9 -2 -12 -12z"/>
<path d="M2631 3002 c-8 -14 -11 -14 -11 -2 0 8 -7 0 -15 -18 l-15 -33 -25 27
c-14 15 -25 22 -25 16 0 -6 -6 -9 -13 -6 -8 3 -19 -2 -26 -10 -8 -9 -23 -12
-43 -9 -30 4 -31 4 -18 -14 22 -29 24 -29 16 -8 -4 11 -3 16 1 11 4 -4 8 -20
9 -34 0 -15 10 -65 22 -112 11 -47 38 -160 58 -251 27 -116 41 -163 49 -155 5
6 22 37 37 69 16 32 34 57 43 57 8 0 15 7 15 16 0 9 -5 12 -12 8 -8 -5 -7 0 2
11 13 17 13 18 0 13 -10 -4 -20 3 -26 17 -9 19 -9 22 2 18 8 -3 14 0 14 6 0 6
12 11 28 11 21 0 24 2 12 10 -13 8 -12 10 5 11 11 1 23 1 27 0 4 0 5 5 2 12
-2 7 12 19 36 30 41 17 50 31 28 40 -10 4 -10 6 -1 6 7 1 10 8 7 16 -4 8 1 17
10 21 23 9 10 23 -17 17 -16 -4 -19 -2 -8 5 17 12 24 62 9 62 -6 0 -8 3 -5 6
3 4 0 16 -8 27 -10 14 -11 25 -4 38 7 14 5 23 -10 35 -11 10 -17 24 -13 32 3
10 1 13 -6 8 -7 -4 -12 -2 -12 4 0 6 -4 8 -10 5 -19 -12 -51 -14 -75 -5 -19 7
-27 5 -34 -8z"/>
<path d="M3041 2961 c-8 -14 -7 -20 4 -25 8 -3 17 0 21 6 5 7 2 8 -6 3 -10 -6
-12 -3 -8 13 7 27 2 28 -11 3z"/>
<path d="M2315 2953 c4 -10 9 -36 11 -58 l4 -40 -11 35 c-17 54 -33 67 -84 65
-25 -1 -47 -3 -49 -6 -2 -2 -7 -23 -11 -46 -6 -39 -5 -43 18 -48 16 -4 24 -13
22 -23 -2 -9 -4 -24 -4 -31 -1 -12 -4 -12 -13 -3 -7 7 -21 12 -31 12 -16 0
-18 -5 -14 -27 3 -16 9 -36 12 -45 5 -13 2 -16 -14 -13 -12 2 -26 7 -32 10
-13 8 -38 -23 -39 -47 0 -10 5 -18 10 -18 6 0 10 -5 10 -11 0 -6 -6 -9 -12 -7
-7 3 -19 -2 -27 -10 -11 -11 -12 -15 -1 -22 7 -4 10 -12 7 -17 -3 -5 3 -17 14
-26 10 -9 19 -12 19 -7 0 6 5 10 10 10 6 0 10 -12 10 -26 0 -14 4 -23 10 -19
6 3 10 1 10 -5 0 -6 4 -9 9 -6 13 8 42 -4 35 -15 -7 -12 21 -40 31 -31 5 4 5
-3 2 -16 -4 -18 -2 -22 10 -18 9 4 17 -1 20 -14 3 -11 12 -20 19 -20 8 0 14
-7 14 -16 0 -11 6 -14 22 -9 16 6 20 4 15 -8 -4 -11 -2 -14 8 -10 8 3 13 9 10
13 -3 4 6 7 20 6 17 -1 29 -11 40 -37 14 -30 21 -35 42 -31 17 3 24 1 19 -6
-4 -6 1 -10 13 -9 11 0 18 7 16 17 -1 8 -8 14 -15 12 -6 -1 -9 2 -5 8 3 5 15
10 26 10 14 0 18 -4 13 -12 -6 -10 -5 -10 8 -1 8 7 19 9 23 5 5 -4 6 -2 3 3
-3 6 0 16 7 22 11 10 15 9 18 -5 12 -45 6 33 -8 104 -48 246 -124 503 -147
504 -5 0 -8 -12 -9 -27 0 -28 0 -28 -11 -5 -7 13 -17 21 -25 18 -7 -3 -13 -1
-13 4 0 6 -9 10 -21 10 -16 0 -19 -4 -14 -17z m62 -39 c-3 -3 -12 -4 -19 -1
-8 3 -5 6 6 6 11 1 17 -2 13 -5z m-82 -184 c3 -5 1 -10 -4 -10 -6 0 -11 5 -11
10 0 6 2 10 4 10 3 0 8 -4 11 -10z"/>
<path d="M2990 2960 c-2 -8 -2 -18 -1 -22 0 -5 -4 -8 -10 -8 -5 0 -7 -5 -4
-10 4 -6 11 -7 17 -4 8 5 9 1 5 -10 -5 -11 -3 -15 5 -10 7 5 9 0 6 -14 -4 -12
-2 -22 4 -22 6 0 8 14 6 32 -5 28 -4 29 9 13 7 -11 13 -15 13 -9 -1 14 -29 60
-30 49 -1 -5 -5 -1 -10 10 -6 14 -9 16 -10 5z"/>
<path d="M2140 2935 c0 -8 4 -15 10 -15 5 0 7 7 4 15 -4 8 -8 15 -10 15 -2 0
-4 -7 -4 -15z"/>
<path d="M1285 2841 c-6 -5 -39 -11 -75 -12 -92 -3 -100 -6 -99 -37 3 -55 9
-65 40 -58 20 4 27 2 24 -7 -7 -18 7 -34 35 -39 14 -3 -5 -5 -43 -4 -46 1 -66
5 -63 12 7 17 -5 26 -19 14 -6 -5 -29 -13 -51 -18 -35 -8 -29 -10 58 -17 53
-4 116 -5 140 -1 81 11 148 13 154 5 3 -5 10 -9 17 -9 18 0 -26 29 -45 30 -10
0 -18 5 -18 10 0 14 31 12 60 -5 28 -16 54 -20 30 -5 -10 6 -11 10 -2 10 6 0
12 4 12 9 0 5 -10 7 -22 4 -19 -4 -20 -3 -8 6 10 7 11 11 3 11 -15 0 -13 21 2
33 6 5 -2 7 -17 4 -21 -3 -25 0 -21 12 5 13 3 14 -8 4 -7 -7 -18 -13 -23 -13
-6 0 -4 5 4 10 13 8 13 10 -2 11 -22 2 -28 3 -51 14 -14 6 -15 10 -6 21 13 16
8 19 -6 5z"/>
<path d="M2820 2760 c0 -5 7 -10 16 -10 8 0 12 5 9 10 -3 6 -10 10 -16 10 -5
0 -9 -4 -9 -10z"/>
<path d="M1130 2710 c0 -5 5 -10 10 -10 6 0 10 5 10 10 0 6 -4 10 -10 10 -5 0
-10 -4 -10 -10z"/>
<path d="M1663 2506 c3 -8 -1 -17 -9 -20 -8 -3 -12 -2 -9 3 3 5 0 13 -7 17 -7
4 -10 4 -6 -1 4 -4 2 -15 -5 -23 -8 -11 -8 -14 0 -9 6 4 14 3 18 -3 11 -17 35
-12 28 7 -5 13 -2 15 13 10 18 -7 18 -6 2 6 -10 8 -15 17 -11 20 3 4 1 7 -6 7
-7 0 -11 -6 -8 -14z"/>
<path d="M2663 2505 c0 -8 4 -12 9 -9 5 3 6 10 3 15 -9 13 -12 11 -12 -6z"/>
<path d="M3105 2380 c3 -5 8 -10 11 -10 2 0 4 5 4 10 0 6 -5 10 -11 10 -5 0
-7 -4 -4 -10z"/>
<path d="M2376 2327 c3 -10 9 -15 12 -12 3 3 0 11 -7 18 -10 9 -11 8 -5 -6z"/>
<path d="M1940 2309 c0 -5 5 -7 10 -4 6 3 10 8 10 11 0 2 -4 4 -10 4 -5 0 -10
-5 -10 -11z"/>
<path d="M2861 2293 c-8 -9 -17 -29 -21 -47 l-8 -31 -1 33 c-1 34 -15 43 -25
16 -3 -8 -10 -13 -15 -9 -5 3 -13 -5 -17 -17 -4 -13 -12 -26 -18 -30 -8 -6 -7
-8 2 -8 6 0 12 -7 12 -15 0 -9 7 -28 16 -43 15 -25 15 -25 0 -8 -9 11 -16 16
-16 10 0 -5 -8 0 -16 11 l-16 20 4 -20 c2 -13 -3 -20 -12 -20 -28 0 -47 -28
-36 -53 11 -26 -6 -54 -19 -31 -5 8 -4 10 3 5 7 -4 12 -3 12 3 0 20 -16 19
-29 -2 -8 -12 -11 -19 -7 -16 8 7 102 -81 99 -92 -2 -5 5 -9 14 -9 10 0 33
-17 52 -37 19 -21 31 -33 27 -26 -4 7 0 29 9 49 16 39 20 68 6 46 -6 -10 -10
-3 -15 22 -4 20 -7 38 -7 41 1 3 -8 21 -19 40 -21 37 -17 47 7 18 13 -17 14
-16 10 5 -3 12 -2 20 3 17 12 -7 37 27 53 73 15 43 9 54 -13 27 -7 -8 -22 -15
-34 -14 -19 0 -19 1 4 12 32 15 40 26 40 59 0 33 -11 41 -29 21z"/>
<path d="M1972 2287 c-12 -7 -19 -16 -15 -21 4 -4 1 -11 -7 -17 -13 -8 -13
-10 -1 -18 12 -8 12 -13 3 -24 -10 -12 -7 -16 19 -21 17 -3 43 -6 58 -6 20 0
23 2 11 10 -8 5 -10 10 -4 10 6 0 11 7 11 15 0 8 -7 15 -14 15 -8 0 -12 4 -8
9 3 5 -4 13 -16 16 -17 6 -19 9 -8 16 11 7 11 9 1 9 -7 0 -10 5 -7 10 8 13 5
12 -23 -3z"/>
<path d="M1596 2214 c-25 -19 -44 -40 -41 -45 4 -5 15 -3 27 5 11 8 28 12 37
9 12 -3 12 -2 -2 7 -17 11 -16 14 14 36 18 13 28 24 22 24 -5 0 -31 -16 -57
-36z"/>
<path d="M1946 2169 c3 -5 0 -9 -7 -9 -7 0 -10 -2 -8 -5 3 -2 18 -1 35 4 l29
8 -27 5 c-15 3 -25 1 -22 -3z"/>
<path d="M2037 2148 c2 -5 -2 -8 -11 -8 -17 0 -15 -32 4 -38 7 -3 21 -13 31
-23 18 -18 18 -22 4 -49 -9 -18 -11 -30 -5 -30 6 0 16 11 22 25 11 25 20 29
47 25 9 -1 12 4 8 14 -3 8 -1 18 5 22 7 4 0 13 -18 23 -16 9 -29 22 -29 30 0
9 -12 14 -32 15 -17 1 -29 -2 -26 -6z"/>
<path d="M2870 2107 c0 -8 -7 -20 -15 -27 -20 -17 -6 -31 22 -24 24 7 27 33 6
53 -10 9 -13 9 -13 -2z m10 -31 c0 -2 -7 -7 -16 -10 -8 -3 -12 -2 -9 4 6 10
25 14 25 6z"/>
<path d="M2863 2015 c8 -17 13 -20 15 -10 2 8 9 15 15 15 15 0 -14 20 -30 20
-8 0 -8 -6 0 -25z"/>
<path d="M2362 1786 c7 -8 15 -12 17 -11 5 6 -10 25 -20 25 -5 0 -4 -6 3 -14z"/>
<path d="M2055 1699 c-4 -6 -5 -12 -2 -15 2 -3 7 2 10 11 7 17 1 20 -8 4z"/>
<path d="M2081 1693 c-7 -8 -11 -16 -8 -19 2 -2 10 2 17 11 17 20 9 27 -9 8z"/>
<path d="M2630 1269 c0 -5 5 -7 10 -4 6 3 10 8 10 11 0 2 -4 4 -10 4 -5 0 -10
-5 -10 -11z"/>
<path d="M2605 1240 c-3 -5 -1 -10 4 -10 6 0 11 5 11 10 0 6 -2 10 -4 10 -3 0
-8 -4 -11 -10z"/>
</g>
</svg>
