<?xml version="1.0" encoding="UTF-8"?> <svg xmlns="http://www.w3.org/2000/svg" width="269" height="329" viewBox="0 0 269 329" fill="none"><path d="M167.216 247.85C50.4234 357.347 4.08776 249.825 4.08776 249.825C4.08776 249.825 -17.0839 179.435 36.9379 102.775C101.987 10.2294 203.302 -2.52065 233.127 0.357988C233.127 0.357988 210.762 -1.44904 169.427 21.9877C131.576 43.2644 91.3631 92.5753 86.4001 146.164C77.1674 245.975 167.199 247.833 167.199 247.833L167.212 247.845L167.216 247.85Z" fill="url(#paint0_linear_498_8773)"></path><path d="M160.799 215.55C160.799 215.55 160.748 215.6 160.731 215.63C97.5568 285.116 41.8709 282.418 17.4256 259.873C15.8791 258.444 14.3999 256.939 13.0005 255.368C11.5465 253.716 10.2227 251.964 9.04603 250.119C1.21697 238.008 0.258828 223.997 0.078125 218.655C0.078125 306.788 83.7856 343.067 152.827 324.098C182.05 316.096 196.048 308.477 217.56 293.055C234.164 281.141 250.621 264.617 262.131 249.257C263.165 247.871 265.026 245.135 267.695 241.046C269.006 239.041 268.443 236.373 266.438 235.062C266.06 234.814 265.653 234.629 265.22 234.511C262.534 233.78 259.681 232.994 256.668 232.166C237.278 226.85 211.038 219.647 177.923 210.562C171.729 208.86 165.106 210.797 160.799 215.55Z" fill="url(#paint1_linear_498_8773)"></path><defs><linearGradient id="paint0_linear_498_8773" x1="146.743" y1="42.8885" x2="41.8113" y2="219.617" gradientUnits="userSpaceOnUse"><stop stop-color="#1B73B8"></stop><stop offset="1" stop-color="#05498C"></stop></linearGradient><linearGradient id="paint1_linear_498_8773" x1="250.429" y1="259.303" x2="27.0004" y2="346.13" gradientUnits="userSpaceOnUse"><stop stop-color="#119CDD"></stop><stop offset="1" stop-color="#3FBBF9"></stop></linearGradient></defs></svg> 